<svg xmlns="http://www.w3.org/2000/svg" enable-background="new 0 0 1000 1000" viewBox="0 0 1000 1000"><rect width="1000" height="1000" fill="#4a6d8b"/><path fill="#395d77" d="M757.429,300.712H601.56v-52H645c14.359,0,26-11.641,26-26v0
		c0-14.359-11.641-26-26-26H389.56c-14.359,0-26,11.641-26,26v0c0,14.359,11.641,26,26,26h55.381c14.359,0,26,11.641,26,26v0
		c0,14.359-11.641,26-26,26H266.893c-14.359,0-26,11.641-26,26v0c0,14.359,11.641,26,26,26h70.774c14.359,0,26,11.641,26,26v0
		c0,14.359-11.641,26-26,26h-29.925c-14.359,0-26,11.641-26,26v0c0,14.359,11.641,26,26,26h98.647v52h-76.022
		c-14.359,0-26,11.641-26,26l0,0c0,14.359,11.641,26,26,26h138.574c14.359,0,26,11.641,26,26v0c0,14.359-11.641,26-26,26h-77.469
		c-14.359,0-26,11.641-26,26v0c0,14.359,11.641,26,26,26h296.636c14.359,0,26-11.641,26-26v0c0-14.359-11.641-26-26-26h-74.549v-52
		h23.648c14.359,0,26-11.641,26-26v0c0-14.359-11.641-26-26-26h-23.648v-52h98.647c14.359,0,26-11.641,26-26v0
		c0-14.359-11.641-26-26-26h3.651v-52h41.571c14.359,0,26-11.641,26-26v0C783.429,312.353,771.788,300.712,757.429,300.712z" opacity=".69"/><path fill="#825d7e" d="M265.806,506.267h-27.164c-14.359,0-26-11.641-26-26v0
		c0-14.359,11.641-26,26-26h27.164c14.359,0,26,11.641,26,26v0C291.806,494.626,280.165,506.267,265.806,506.267z" opacity=".5"/><path fill="#4a6d8b" d="M515.832 404.712h-52.684c-14.359 0-26-11.641-26-26v0c0-14.359 11.641-26 26-26h52.684c14.359 0 26 11.641 26 26v0C541.832 393.072 530.191 404.712 515.832 404.712zM747.926 404.712H636.198c-14.359 0-26-11.641-26-26v0c0-14.359 11.641-26 26-26h111.728c14.359 0 26 11.641 26 26v0C773.926 393.072 762.285 404.712 747.926 404.712zM653.199 508.712H541.47c-14.359 0-26-11.641-26-26v0c0-14.359 11.641-26 26-26h111.728c14.359 0 26 11.641 26 26v0C679.199 497.072 667.558 508.712 653.199 508.712z"/><path fill="#684463" d="M384.231,451.712H272.503c-14.359,0-26-11.641-26-26v0c0-14.359,11.641-26,26-26
		h111.728c14.359,0,26,11.641,26,26v0C410.231,440.072,398.59,451.712,384.231,451.712z"/><path fill="#4a6d8b" d="M713.562 300.712H601.834c-14.359 0-26-11.641-26-26v0c0-14.359 11.641-26 26-26h111.728c14.359 0 26 11.641 26 26v0C739.562 289.072 727.921 300.712 713.562 300.712zM719.439 612.712H607.711c-14.359 0-26-11.641-26-26v0c0-14.359 11.641-26 26-26h111.728c14.359 0 26 11.641 26 26v0C745.439 601.072 733.798 612.712 719.439 612.712z"/><path fill="#395d77" d="M705.199 560.712h36.186c14.359 0 26-11.641 26-26v0c0-14.359-11.641-26-26-26h-36.186c-14.359 0-26 11.641-26 26v0C679.199 549.072 690.839 560.712 705.199 560.712zM793.43 456.712h-12.404c-14.359 0-26-11.641-26-26v0c0-14.359 11.641-26 26-26h12.404c14.359 0 26 11.641 26 26v0C819.43 445.072 807.79 456.712 793.43 456.712zM272.503 664.712h48.615c14.359 0 26-11.641 26-26v0c0-14.359-11.641-26-26-26h-48.615c-14.359 0-26 11.641-26 26v0C246.503 653.072 258.143 664.712 272.503 664.712zM195.283 352.712L195.283 352.712c14.359 0 26-11.641 26-26v0c0-14.359-11.641-26-26-26h0c-14.359 0-26 11.641-26 26v0C169.283 341.072 180.924 352.712 195.283 352.712z" opacity=".69"/><path fill="#2d4659" d="M888.164,713.47H111.836c-7.177,0-12.995-5.818-12.995-12.995v0
		c0-7.177,5.818-12.995,12.995-12.995h776.328c7.177,0,12.995,5.818,12.995,12.995v0C901.159,707.652,895.341,713.47,888.164,713.47
		z" opacity=".56"/><rect width="20" height="100" x="435.698" y="599.48" fill="#8bbf98"/><rect width="12" height="100" x="455.698" y="599.48" fill="#63916e"/><rect width="20" height="100" x="547.698" y="599.48" fill="#8bbf98"/><rect width="12" height="100" x="567.698" y="599.48" fill="#63916e"/><rect width="20" height="100" x="631.698" y="599.48" fill="#8bbf98"/><rect width="12" height="100" x="651.698" y="599.48" fill="#63916e"/><rect width="12" height="80" x="716.062" y="619.48" fill="#8bbf98"/><rect width="8" height="80" x="728.062" y="619.48" fill="#63916e"/><rect width="12" height="80" x="792.029" y="619.48" fill="#8bbf98"/><rect width="8" height="80" x="804.029" y="619.48" fill="#63916e"/><rect width="8" height="4" x="804.029" y="619.48" fill="#55845f"/><rect width="12" height="4" x="792.029" y="619.48" fill="#63916e"/><rect width="12" height="192" x="761.385" y="507.48" fill="#8bbf98"/><rect width="8" height="192" x="773.385" y="507.48" fill="#63916e"/><rect width="12" height="192" x="837.352" y="507.48" fill="#8bbf98"/><rect width="8" height="192" x="849.352" y="507.48" fill="#63916e"/><path fill="#ef6562" d="M431.148,547.48h-23.597v-172h23.597c3.314,0,6,2.686,6,6v160
		C437.148,544.793,434.461,547.48,431.148,547.48z"/><path fill="#ec958b" d="M423.624,547.48h-244c-3.314,0-6-2.686-6-6v-160c0-3.314,2.686-6,6-6h244
		c3.314,0,6,2.686,6,6v160C429.624,544.793,426.937,547.48,423.624,547.48z"/><rect width="148" height="232" x="227.551" y="345.388" fill="#34515b" transform="rotate(90 301.55 461.388)"/><rect width="148" height="3" x="113.051" y="459.888" fill="#d84e4e" transform="rotate(90 187.051 461.388)"/><rect width="3.75" height="148" x="413.801" y="387.388" fill="#284249"/><rect width="18.22" height="152" x="304.164" y="547.48" fill="#d84e4e"/><rect width="18.22" height="152" x="296.551" y="547.48" fill="#ef6562"/><rect width="18.22" height="7.409" x="296.551" y="547.48" fill="#d84e4e"/><path fill="#ef6562" d="M376.56,699.48H253.893v-12c0-6.627,5.373-12,12-12h98.667c6.627,0,12,5.373,12,12
		V699.48z"/><path fill="#ec958b" d="M365.472,699.48H242.805v-12c0-6.627,5.373-12,12-12h98.667c6.627,0,12,5.373,12,12
		V699.48z"/><rect width="132" height="19.091" x="435.698" y="580.388" fill="#8bbf98"/><rect width="96" height="19.091" x="567.698" y="580.388" fill="#63916e"/><rect width="129.036" height="13.333" x="428.661" y="567.055" fill="#9fd6a3"/><rect width="132" height="4" x="435.698" y="580.388" fill="#63916e"/><rect width="115.558" height="13.333" x="557.698" y="567.055" fill="#83b78d"/><rect width="96" height="16" x="710.415" y="603.48" fill="#81b58c"/><rect width="56" height="16" x="806.4" y="603.48" fill="#63916e"/><rect width="63.967" height="36" x="773.385" y="517.347" fill="#81b58c"/><rect width="8" height="4" x="849.352" y="619.48" fill="#55845f"/><rect width="12" height="4" x="837.352" y="619.48" fill="#63916e"/><rect width="12" height="4" x="761.385" y="619.48" fill="#63916e"/><rect width="12" height="4" x="716.062" y="619.48" fill="#63916e"/><rect width="8" height="4" x="728.062" y="619.48" fill="#55845f"/><rect width="8.027" height="4" x="773.385" y="619.48" fill="#55845f"/><rect width="96" height="4" x="567.698" y="580.388" fill="#577f5d"/><rect width="9.426" height="84.833" x="600.998" y="453.635" fill="#dd5858" transform="rotate(-7.666 605.701 496.043)"/><rect width="10.604" height="22.288" x="596.538" y="456.152" fill="#ef6562" transform="rotate(-7.666 601.831 467.288)"/><rect width="2.046" height="1.424" x="593.419" y="459.036" fill="#e8e8e8" transform="rotate(-7.666 594.433 459.739)"/><path fill="#e8e8e8" d="M596.227,476.25l-0.585,0.079l-2.119-15.74l1.448-0.195l2.003,14.878
			C597.037,475.748,596.703,476.186,596.227,476.25z"/><rect width="9.426" height="1.08" x="598.686" y="478.336" fill="#d35050" transform="rotate(-7.666 603.39 478.868)"/><path fill="#e8e8e8" d="M583.69,479.585l-8.112,2.538l-3.719-11.89c-0.495-1.581,0.386-3.264,1.968-3.759
			l2.386-0.746c1.581-0.495,3.264,0.386,3.759,1.968L583.69,479.585z"/><rect width="12.583" height="21.75" x="576.589" y="480.358" fill="#35393d" transform="rotate(-17.369 582.816 491.133)"/><polygon fill="#808284" points="578.997 500.73 588.756 488.385 586.682 481.755 576.923 494.1"/><rect width="11.417" height="43.917" x="586.974" y="500.611" fill="#3b4044" transform="rotate(-17.369 592.618 522.463)"/><rect width="3.792" height="43.917" x="588.978" y="501.177" fill="#6d6f70" opacity=".66" transform="rotate(-17.369 590.809 523.03)"/><polygon fill="#c5e1df" points="633.912 463.911 629.978 463.331 625.103 472.086 636.05 473.701"/><path fill="#b3dbad" d="M621.391,545.344l-2.946-0.435c-2.209-0.326-3.736-2.381-3.41-4.591l10.069-68.233
			l10.947,1.615l-10.069,68.233C625.655,544.143,623.6,545.67,621.391,545.344z"/><path fill="#68a575" d="M617.282 544.737l-.764-.113c-1.146-.169-1.937-1.235-1.768-2.38l10.353-70.159 2.838.419L617.282 544.737zM623.317 545.628l-.764-.113 10.659-72.233 2.838.419-10.353 70.159C625.528 545.005 624.463 545.797 623.317 545.628z"/><path fill="#6f5a66" d="M633.912,463.911l-0.877-4.013c-0.131-0.601-0.76-0.694-1.059-0.156l-1.998,3.589
			L633.912,463.911z"/><polygon fill="#a5ceca" points="633.912 463.911 632.046 463.636 633.212 473.282 636.05 473.701"/><path fill="#f2e07c" d="M633.922,567.055h-56V509.48c0-1.105,0.895-2,2-2h52c1.105,0,2,0.895,2,2V567.055z"/><path fill="#dfbb4d" d="M625.922,507.48v59.575h8V509.48c0-1.105-0.895-2-2-2H625.922z"/><rect width="31.065" height="29.788" x="564.255" y="537.267" fill="#6e7ee0"/><rect width="3.442" height="29.788" x="564.255" y="537.267" fill="#7a8ce2"/><rect width="4.508" height="29.788" x="590.873" y="537.267" fill="#6373c1" transform="rotate(-180 593.128 552.161)"/><rect width="2.818" height="29.788" x="595.382" y="537.267" fill="#dfbb4d" transform="rotate(-180 596.79 552.161)"/><rect width="23.411" height="23.411" x="471.529" y="543.644" fill="#ec958b"/><rect width="23.411" height="1.073" x="471.529" y="543.644" fill="#ef6562"/><rect width="12.393" height="23.411" x="494.941" y="543.644" fill="#ef6562"/><path fill="#fff" d="M485.688,558.748h-3.907l-0.646,1.869h-2.066l3.527-9.823h2.291l3.527,9.823h-2.08L485.688,558.748
			z M483.735,553.07l-1.419,4.104h2.839L483.735,553.07z"/><rect width="23.411" height="23.411" x="504.695" y="543.644" fill="#e8b58b"/><rect width="12.393" height="23.411" x="528.107" y="543.644" fill="#e09d6c"/><path fill="#fff" d="M516.521,550.808c2.361,0,3.542,1.363,3.542,3.008c0,1.194-0.661,2.403-2.234,2.824l2.347,3.978
			h-2.276l-2.165-3.822h-0.927v3.822h-1.968v-9.81H516.521z M516.45,552.438h-1.644v2.881h1.644c1.097,0,1.588-0.576,1.588-1.462
			C518.038,552.986,517.547,552.438,516.45,552.438z"/><rect width="23.411" height="23.411" x="465.333" y="520.232" fill="#1bb1b2"/><rect width="12.393" height="23.411" x="488.744" y="520.232" fill="#19a5a1"/><path fill="#fff" d="M480.194,527.396h2.094l-3.598,9.809h-2.389l-3.598-9.809h2.108l2.698,7.799L480.194,527.396z"/><path fill="#ef6562" d="M187.228,693.297c-12.492,9.113-30.007,6.373-39.119-6.119
		c-9.113-12.492-6.373-30.007,6.119-39.12L187.228,693.297z"/><path fill="#f2e07c" d="M154.228,648.058c12.492-9.113,30.007-6.373,39.12,6.119
		c9.113,12.492,6.373,30.007-6.119,39.12L154.228,648.058z"/><path fill="#a59a63" d="M174.884,642.986c10.574,4.002,18.094,14.216,18.094,26.191
		c0,15.464-12.536,28-28,28c-1.412,0-2.8-0.107-4.156-0.309c3.08,1.166,6.417,1.809,9.906,1.809c15.464,0,28-12.536,28-28
		C198.728,656.626,188.377,644.994,174.884,642.986z" opacity=".25"/><path fill="#d1d1d1" d="M278.904,472.444c0.556-1.052,1.091-2.201,1.601-3.332
			c0.502-1.144,0.987-2.297,1.441-3.465c0.913-2.333,1.732-4.706,2.436-7.111c0.186-0.598,0.358-1.201,0.514-1.807l0.482-1.815
			c0.282-1.219,0.594-2.432,0.821-3.662c0.264-1.223,0.464-2.456,0.66-3.689c0.211-1.231,0.32-2.474,0.486-3.71l0.103-0.77
			l0.472-0.442l0.001-0.001c0.474-0.482,1.299-0.966,2.184-1.03c0.881-0.074,1.601,0.185,2.124,0.454
			c1.049,0.567,1.655,1.228,2.232,1.869c1.109,1.295,1.92,2.622,2.69,3.962c1.512,2.684,2.742,5.427,3.89,8.2
			c1.139,2.774,2.171,5.578,3.113,8.413c0.932,2.842,1.808,5.688,2.434,8.666c0.108,0.514-0.221,1.017-0.734,1.125
			c-0.494,0.104-0.98-0.197-1.112-0.677l-0.005-0.02c-0.757-2.777-1.786-5.544-2.861-8.264c-1.087-2.722-2.261-5.411-3.529-8.042
			c-1.271-2.624-2.629-5.214-4.168-7.602c-0.769-1.181-1.596-2.337-2.474-3.237c-0.425-0.44-0.909-0.819-1.185-0.923
			c-0.136-0.059-0.154-0.012-0.013-0.011c0.144,0.003,0.284-0.1,0.242-0.055l0,0l0.575-1.211c-0.173,1.303-0.29,2.616-0.511,3.911
			c-0.205,1.298-0.417,2.594-0.693,3.877c-0.239,1.291-0.564,2.561-0.861,3.839l-0.504,1.9c-0.164,0.634-0.344,1.264-0.538,1.889
			c-0.736,2.514-1.591,4.99-2.545,7.43c-0.475,1.221-0.983,2.43-1.511,3.633c-0.544,1.204-1.089,2.381-1.73,3.595
			c-0.515,0.977-1.725,1.351-2.702,0.835s-1.351-1.725-0.835-2.702l0,0L278.904,472.444z"/><path fill="#d1d1d1" d="M280.435,459.402l25.037-2.556c0.9-0.092,1.703,0.563,1.795,1.463
			c0.09,0.883-0.542,1.674-1.416,1.79l-24.952,3.277c-1.095,0.144-2.1-0.627-2.244-1.723s0.627-2.1,1.723-2.244
			C280.394,459.406,280.419,459.404,280.435,459.402z"/><path fill="#8bbf98" d="M833.847 528.159H822.88c-1.657 0-3-1.343-3-3l0 0c0-1.657 1.343-3 3-3h10.967c1.657 0 3 1.343 3 3l0 0C836.847 526.816 835.504 528.159 833.847 528.159zM825.903 537.451h-12.047c-1.657 0-3-1.343-3-3l0 0c0-1.657 1.343-3 3-3h12.047c1.657 0 3 1.343 3 3l0 0C828.903 536.108 827.56 537.451 825.903 537.451z"/><path fill="#8bbf98" d="M816.43,548.534h-36.046c-1.657,0-3-1.343-3-3l0,0
		c0-1.657,1.343-3,3-3h36.046c1.657,0,3,1.343,3,3l0,0C819.43,547.191,818.087,548.534,816.43,548.534z" opacity=".74"/><path fill="#ef6562" d="M281.5 687.48h-22.979c-1.657 0-3-1.343-3-3v0c0-1.657 1.343-3 3-3H281.5c1.657 0 3 1.343 3 3v0C284.5 686.137 283.157 687.48 281.5 687.48zM304.25 687.48h-6.729c-1.657 0-3-1.343-3-3v0c0-1.657 1.343-3 3-3h6.729c1.657 0 3 1.343 3 3v0C307.25 686.137 305.907 687.48 304.25 687.48zM354 694.98h-26.75c-1.657 0-3-1.343-3-3l0 0c0-1.657 1.343-3 3-3H354c1.657 0 3 1.343 3 3l0 0C357 693.637 355.657 694.98 354 694.98z" opacity=".23"/><path fill="#ef6562" d="M343.25,694.98H338c-1.657,0-3-1.343-3-3l0,0c0-1.657,1.343-3,3-3h5.25
		c1.657,0,3,1.343,3,3l0,0C346.25,693.637,344.907,694.98,343.25,694.98z" opacity=".23"/><path fill="#8bbf98" d="M797.439 537.451h-5.25c-1.657 0-3-1.343-3-3l0 0c0-1.657 1.343-3 3-3h5.25c1.657 0 3 1.343 3 3l0 0C800.439 536.108 799.096 537.451 797.439 537.451zM806.526 528.159h-25.013c-1.657 0-3-1.343-3-3l0 0c0-1.657 1.343-3 3-3h25.013c1.657 0 3 1.343 3 3l0 0C809.526 526.816 808.183 528.159 806.526 528.159z"/><path fill="#63916e" d="M472.091 589.934h-20.787c-.914 0-1.655-.741-1.655-1.655l0 0c0-.914.741-1.655 1.655-1.655h20.787c.914 0 1.655.741 1.655 1.655l0 0C473.745 589.193 473.005 589.934 472.091 589.934zM487.982 589.934h-9.495c-.914 0-1.655-.741-1.655-1.655l0 0c0-.914.741-1.655 1.655-1.655h9.495c.914 0 1.655.741 1.655 1.655l0 0C489.637 589.193 488.896 589.934 487.982 589.934zM500.875 595.684h-20.498c-.914 0-1.655-.741-1.655-1.655l0 0c0-.914.741-1.655 1.655-1.655h20.498c.914 0 1.655.741 1.655 1.655l0 0C502.529 594.943 501.789 595.684 500.875 595.684zM537.353 595.684h-6.1c-.914 0-1.655-.741-1.655-1.655l0 0c0-.914.741-1.655 1.655-1.655h6.1c.914 0 1.655.741 1.655 1.655l0 0C539.008 594.943 538.267 595.684 537.353 595.684zM543.55 590.851h-6.1c-.914 0-1.655-.741-1.655-1.655l0 0c0-.914.741-1.655 1.655-1.655h6.1c.914 0 1.655.741 1.655 1.655l0 0C545.204 590.11 544.464 590.851 543.55 590.851z" opacity=".18"/><path fill="#8bbf98" d="M607.59 595.684h-23.479c-.914 0-1.655-.741-1.655-1.655l0 0c0-.914.741-1.655 1.655-1.655h23.479c.914 0 1.655.741 1.655 1.655l0 0C609.244 594.943 608.503 595.684 607.59 595.684zM641.088 595.684h-6.1c-.914 0-1.655-.741-1.655-1.655l0 0c0-.914.741-1.655 1.655-1.655h6.1c.914 0 1.655.741 1.655 1.655l0 0C642.742 594.943 642.001 595.684 641.088 595.684zM614.043 590.022h-13.15c-.914 0-1.655-.741-1.655-1.655l0 0c0-.914.741-1.655 1.655-1.655h13.15c.914 0 1.655.741 1.655 1.655l0 0C615.698 589.281 614.957 590.022 614.043 590.022z" opacity=".26"/></svg>