<svg xmlns="http://www.w3.org/2000/svg" enable-background="new 0 0 1000 1000" viewBox="0 0 1000 1000"><rect width="1000" height="1000" fill="#383333"/><path fill="#2b2727" d="M785.704,675.977H191.641c-13.357,0-24.185-10.828-24.185-24.185v0
	c0-13.357,10.828-24.185,24.185-24.185h594.063c13.357,0,24.185,10.828,24.185,24.185v0
	C809.889,665.149,799.061,675.977,785.704,675.977z"/><path fill="#72361f" d="M706.258,412.873v-51.841c0-19.882-16.118-36-36-36h0c-19.882,0-36,16.118-36,36
	v51.841c0,33.137-26.863,60-60,60h0v152c0,13.255,10.745,24,24,24h144c13.255,0,24-10.745,24-24v-152h0
	C733.12,472.873,706.258,446.01,706.258,412.873z"/><rect width="16.409" height="8.343" x="656.258" y="325.032" fill="#72361f"/><path fill="#5b3318" d="M692.258,412.873v-51.841c0-19.882-16.118-36-36-36h0c-19.882,0-36,16.118-36,36
	v51.841c0,33.137-26.863,60-60,60h0v152c0,13.255,10.745,24,24,24h144c13.255,0,24-10.745,24-24v-152h0
	C719.12,472.873,692.258,446.01,692.258,412.873z"/><path fill="#5b3318" d="M752.258,472.873L752.258,472.873c-22.564,0-42.21-12.462-52.455-30.873
	l-55.492,22.448l-28.156,15.557l66.645,10.4l69.458-13.85V472.873z"/><circle cx="656.311" cy="361.709" r="12" fill="#783f21"/><rect width="14" height="3.732" x="311.252" y="325.018" fill="#72361f"/><rect width="345.059" height="24" x="311.252" y="349.709" fill="#783f21"/><rect width="15.907" height="23.836" x="443.225" y="349.709" fill="#72361f" opacity=".44"/><rect width="25.056" height="23.836" x="356.41" y="349.709" fill="#72361f" opacity=".44"/><rect width="21.953" height="23.836" x="552.304" y="349.709" fill="#72361f" opacity=".44"/><defs><filter id="a" width="330" height="83.008" x="328.466" y="313.709" filterUnits="userSpaceOnUse"><feColorMatrix values="1 0 0 0 0  0 1 0 0 0  0 0 1 0 0  0 0 0 1 0"/></filter></defs><mask id="b" width="330" height="83.008" x="328.466" y="313.709" maskUnits="userSpaceOnUse"><g filter="url(#a)"><rect width="345.059" height="24" x="311.252" y="349.709" fill="#783f21"/></g></mask><g mask="url(#b)"><path fill="none" stroke="#300f0f" stroke-linecap="round" stroke-linejoin="round" stroke-miterlimit="10" stroke-width="6" d="
		M331.466,316.709c1.154,8.285,8.125,53.204,41.333,68.667c4.028,1.876,20.147,9.381,28.667,2.667
		c11.307-8.911-3.065-33.183,9.333-48c8.007-9.569,23.696-11.03,34-9.333c35.605,5.863,36.266,54.258,70.667,62
		c21.805,4.908,44.775-9.307,56.667-16.667c24.776-15.333,29.166-31.659,44-32c9.08-0.209,22.455,5.563,39.333,35.333"/><path fill="none" stroke="#300f0f" stroke-linecap="round" stroke-linejoin="round" stroke-miterlimit="10" stroke-width="6" d="M358.799 336.042c-3.844 5.814-4.42 13.012-1.333 18.667 3 5.495 8.334 7.469 10 8 1.769.564 8.275 2.332 14-1.333 5.637-3.609 8.368-11.11 6.667-18.667M422.132 376.042c-.519-1.413-4.928-14.059 2.667-25.333.438-.651 6.933-10.05 15.333-10.667 11.891-.873 26.583 15.928 31.333 43.333"/><path fill="none" stroke="#300f0f" stroke-linecap="round" stroke-linejoin="round" stroke-miterlimit="10" stroke-width="6" d="M438.132 358.042c-3.448 1.722-3.995 8.607-2 13.333.366.867 2.902 6.599 7.333 6.667 4.342.066 8.181-5.341 8-10C451.2 361.22 442.31 355.955 438.132 358.042zM495.466 335.375c.271 3.289 1.233 9.556 5.333 16 5.854 9.199 14.287 12.763 17.333 14 2.874 1.167 12.149 4.789 22.667 2 6.952-1.843 9.795-5.254 27.333-21.333 6.101-5.593 11.053-10.036 14-12.667M599.466 380.042c.938-8.154 6.27-14.777 13.333-16.667.685-.183 9.92-2.489 16 4 4.44 4.739 4.088 10.85 4 12"/><path fill="none" stroke="#300f0f" stroke-linecap="round" stroke-linejoin="round" stroke-miterlimit="10" stroke-width="6" d="
		M527.466,338.042c0.042,9.071,4.351,15.846,9.333,16.667c4.207,0.693,8.175-2.979,10-4.667c4.982-4.609,6.281-10.385,6.667-12.667"/></g><polygon fill="#c9c9c9" points="433.491 341.175 433.424 341.175 424.661 317.753 424.661 317.753 424.661 317.753 424.661 317.753 424.661 317.753 431.845 285.203 450.701 285.203 457.885 317.753 457.885 317.753 457.885 317.753 457.885 317.753 457.885 317.753 449.122 341.175 449.055 341.175 449.055 411.514 433.491 411.514"/><polygon fill="#b5b5b5" points="444.122 341.175 452.885 317.753 452.885 317.753 452.885 317.753 452.885 317.753 445.701 285.203 450.701 285.203 457.885 317.753 457.885 317.753 457.885 317.753 457.885 317.753 449.122 341.175 449.055 341.175 449.055 411.514 444.055 411.514 444.055 341.175"/><path fill="#f45145" d="M417.178,556.434V442.29c0-5.528,3.344-10.272,8.119-12.325
		c1.959-0.842,2.265-3.51,0.625-4.873l-6.688-5.56c-1.777-1.477-2.805-3.668-2.805-5.979v-5.275c0-2.015,1.634-3.649,3.649-3.649
		h42.389c2.015,0,3.649,1.634,3.649,3.649v5.275c0,2.311-1.028,4.502-2.805,5.979l-6.688,5.56c-1.64,1.363-1.334,4.031,0.625,4.873
		c4.775,2.053,8.119,6.797,8.119,12.325v114.144c0,7.41-6.007,13.417-13.417,13.417h-21.356
		C423.185,569.851,417.178,563.844,417.178,556.434z"/><path fill="#db493e" d="M457.368,556.434V442.29c0-5.528-3.344-10.272-8.119-12.325
		c-1.959-0.842-2.265-3.51-0.625-4.873l6.688-5.56c1.777-1.477,2.805-3.668,2.805-5.979v-5.275c0-2.015-1.634-3.649-3.649-3.649h8
		c2.015,0,3.649,1.634,3.649,3.649v5.275c0,2.311-1.028,4.502-2.805,5.979l-6.688,5.56c-1.64,1.363-1.334,4.031,0.625,4.873
		c4.775,2.053,8.119,6.797,8.119,12.325v114.144c0,7.41-6.007,13.417-13.417,13.417h-8
		C451.361,569.851,457.368,563.844,457.368,556.434z"/><path fill="#aa3930" d="M437.008 550.279v-95.333c0-2.761-2.239-5-5-5h0c-2.761 0-5 2.239-5 5v95.333c0 2.761 2.239 5 5 5h0C434.769 555.279 437.008 553.04 437.008 550.279zM455.538 550.279v-95.333c0-2.761-2.239-5-5-5l0 0c-2.761 0-5 2.239-5 5v95.333c0 2.761 2.239 5 5 5l0 0C453.3 555.279 455.538 553.04 455.538 550.279z"/><path fill="#c9c9c9" d="M583.397,284.737c-1.649,1.806-4.042,4.427-6.005,6.577
		c-2.117,2.318-5.622,2.684-8.169,0.848c-5.723-4.126-15.106-11.187-26.974-12.122c-17.187-1.354-28.792,4.657-39.306,12.914
		c-15.548,12.209-25.288,26.842-30.485,35.778c3.852,3.414,5.554,4.45,8.609,6.916c4.943-5.087,14.545-15.838,28.086-19.194
		c2.061-0.511,5.828-1.407,10.162,0c1.452,0.471,4.322,1.642,6.774,4.375c4.304,4.796,4.04,10.741,3.952,12.036v38.843h25.545
		v-37.131c-0.451-6.52,2.333-12.461,7.198-15.019c0.363-0.191,5.205-2.649,9.879-0.847c3.407,1.314,7.582,5.22,10.822,8.253
		c0.287,0.269,1.108,1.048,2.411,1.497c0.712,0.245,1.468,0.365,2.24,0.346c4.621-0.111,14.034-0.346,20.509-0.561
		c3.076-0.102,5.512-2.628,5.512-5.706v-33.809c0-3.11-2.482-5.649-5.591-5.708c-6.233-0.12-14.977-0.262-20.294-0.374
		C586.416,282.609,584.649,283.366,583.397,284.737z"/><path fill="#ababab" d="M517.203 314.643c-2.837-3.161-6.156-4.515-7.835-5.06-5.012-1.627-9.37-.591-11.753 0-7.453 1.847-13.871 5.632-19.171 9.725-2.429 3.509-4.418 6.729-5.986 9.424 3.852 3.414 5.554 4.45 8.609 6.916 4.943-5.087 14.546-15.838 28.086-19.194 1.919-.476 5.317-1.283 9.275-.257C518.056 315.672 517.659 315.151 517.203 314.643zM612.688 323.222c-7.489.249-18.376.521-23.721.649-.892.021-1.767-.117-2.591-.4-1.507-.519-2.457-1.421-2.789-1.732-3.747-3.507-8.576-8.026-12.516-9.545-5.407-2.085-11.007.759-11.427.979-5.626 2.958-8.847 9.829-8.325 17.371v41.163h4.267v-37.131c-.451-6.52 2.333-12.461 7.198-15.019.363-.191 5.205-2.649 9.879-.847 3.407 1.314 7.582 5.22 10.822 8.253.287.269 1.108 1.048 2.411 1.497.712.245 1.468.365 2.24.346 4.621-.111 14.034-.346 20.509-.561 2.919-.097 5.257-2.377 5.489-5.239C613.67 323.128 613.187 323.206 612.688 323.222z"/><path fill="#3b69a9" d="M546.027,548.659h-4.804c-12.564,0-22.618-12.367-22.155-27.253l4.657-149.699h39.8
		l4.656,149.699C568.645,536.293,558.591,548.659,546.027,548.659z"/><path fill="#355e98" d="M568.182,521.406l-4.657-149.699h-9.688l4.656,149.699
		c0.433,13.908-8.315,25.613-19.713,27.092c0.802,0.104,1.616,0.161,2.442,0.161h4.804
		C558.591,548.659,568.645,536.293,568.182,521.406z"/><path fill="#355e98" d="M568.712,383.775h-50.174c-3.332,0-6.034-2.701-6.034-6.034l0,0
		c0-3.332,2.701-6.034,6.034-6.034h50.174c3.332,0,6.034,2.701,6.034,6.034l0,0C574.745,381.073,572.044,383.775,568.712,383.775z"/><polygon fill="#72361f" points="521.785 437.531 564.549 408.096 565.391 435.167 521.085 460.033" opacity=".23"/><polygon fill="#c9c9c9" points="682.212 322.593 416.547 528.426 468.375 595.319 762.712 425.518"/><polygon fill="#e1e1e1" points="751.072 408.709 455.649 578.722 468.751 595.633 758.952 427.646"/><path fill="#fdc457" d="M823.413,357.74l-54.692-70.589c-8.446-10.902-24.131-12.892-35.032-4.446
		l-5.757,4.461l20.384,26.31l0.001,0c1.399-0.462,2.844-0.702,4.29-0.728c0.048-0.001,0.096-0.002,0.145-0.003
		c0.331-0.003,0.662,0.004,0.992,0.024c0.053,0.003,0.106,0.009,0.159,0.013c0.95,0.067,1.889,0.227,2.809,0.477
		c0.146,0.04,0.293,0.077,0.439,0.121c0.226,0.069,0.448,0.146,0.671,0.226c0.185,0.066,0.369,0.137,0.551,0.211
		c0.198,0.08,0.395,0.161,0.589,0.25c0.235,0.107,0.465,0.226,0.694,0.346c0.141,0.074,0.284,0.14,0.423,0.219
		c0.357,0.202,0.705,0.423,1.046,0.657c0.12,0.082,0.235,0.173,0.353,0.259c0.239,0.175,0.475,0.356,0.704,0.547
		c0.122,0.102,0.242,0.206,0.361,0.312c0.228,0.203,0.45,0.415,0.667,0.635c0.1,0.101,0.201,0.198,0.299,0.303
		c0.306,0.328,0.604,0.668,0.884,1.03l26.008,33.568c0.281,0.362,0.535,0.735,0.776,1.114c0.076,0.12,0.146,0.243,0.218,0.364
		c0.158,0.265,0.308,0.533,0.448,0.805c0.073,0.142,0.144,0.284,0.212,0.428c0.128,0.27,0.244,0.544,0.353,0.819
		c0.054,0.136,0.113,0.27,0.163,0.407c0.141,0.388,0.268,0.78,0.375,1.176c0.042,0.154,0.07,0.311,0.107,0.466
		c0.059,0.252,0.117,0.505,0.162,0.759c0.038,0.21,0.066,0.42,0.094,0.631c0.026,0.196,0.049,0.392,0.067,0.588
		c0.022,0.235,0.041,0.47,0.051,0.705c0.006,0.152,0.006,0.303,0.008,0.455c0.013,0.953-0.067,1.903-0.239,2.839
		c-0.01,0.053-0.018,0.106-0.028,0.159c-0.063,0.325-0.14,0.646-0.225,0.967c-0.012,0.047-0.025,0.093-0.038,0.139
		c-0.386,1.393-0.98,2.732-1.776,3.971c0,0.001-0.001,0.001-0.001,0.002l21.613,27.896l3.409-1.967
		C829.262,387.099,832.683,369.704,823.413,357.74z"/><path fill="#f2b24c" d="M784.658 344.458L758.65 310.89c-.28-.362-.578-.702-.884-1.03-.097-.104-.199-.202-.299-.303-.217-.219-.439-.432-.667-.635-.119-.106-.239-.21-.361-.312-.23-.191-.465-.372-.705-.547-.118-.086-.233-.177-.353-.259-.341-.234-.689-.455-1.046-.657-.139-.079-.282-.145-.423-.219-.229-.12-.459-.239-.694-.346-.195-.089-.392-.17-.589-.25-.183-.074-.366-.145-.551-.211-.223-.08-.445-.157-.671-.226-.145-.044-.292-.082-.439-.121-.92-.25-1.86-.41-2.809-.477-.053-.004-.106-.009-.159-.013-.33-.02-.661-.026-.992-.024-.048 0-.096.002-.145.003-1.446.026-2.891.267-4.29.728 0 0 0 0 0 0l-14.607-18.852-.032.025 20.384 26.31.001 0c1.399-.462 2.844-.702 4.29-.728.048-.001.096-.002.145-.003.331-.003.662.004.992.024.053.003.106.009.159.013.95.067 1.889.227 2.809.477.146.04.293.077.439.121.226.069.448.146.671.226.185.066.369.137.551.211.198.08.395.161.589.25.235.107.465.226.694.346.141.074.284.14.423.219.357.202.705.423 1.046.657.12.082.235.173.353.259.239.175.475.356.704.547.122.102.242.206.361.312.228.203.45.415.667.635.1.101.201.198.299.303.306.328.604.668.884 1.03l20.725 26.749C784.969 344.899 784.825 344.674 784.658 344.458zM823.413 357.74l-4.901-6.325c8.197 11.904 4.587 28.442-8.106 35.765l-3.409 1.967-15.845-20.451c-.008.012-.014.024-.021.036 0 .001-.001.001-.001.002l21.613 27.896 3.409-1.967C829.262 387.099 832.683 369.704 823.413 357.74z"/><path fill="#323b40" d="M762.184 316.094c-.01-.008-.02-.015-.03-.023C762.164 316.079 762.174 316.086 762.184 316.094L762.184 316.094zM761.126 315.288c-.341-.234-.689-.455-1.046-.657l0 0C760.437 314.833 760.785 315.054 761.126 315.288L761.126 315.288zM762.545 316.406L762.545 316.406c.214.19.422.391.627.596C762.967 316.797 762.76 316.596 762.545 316.406zM759.657 314.412c-.23-.12-.459-.239-.694-.346 0 0 0 0 0 0C759.198 314.173 759.428 314.291 759.657 314.412L759.657 314.412zM755.319 312.95C755.319 312.95 755.319 312.95 755.319 312.95 755.319 312.95 755.319 312.95 755.319 312.95zM752.752 312.744c-.01 0-.02 0-.03.001C752.732 312.744 752.742 312.744 752.752 312.744L752.752 312.744zM793.312 358.908c.026.196.049.393.067.589l0-.001C793.361 359.3 793.338 359.104 793.312 358.908L793.312 358.908zM758.374 313.816c-.083-.034-.167-.064-.251-.096C758.207 313.752 758.291 313.782 758.374 313.816L758.374 313.816zM753.903 312.78c-.053-.004-.106-.009-.159-.013l0 0C753.797 312.771 753.85 312.776 753.903 312.78L753.903 312.78zM793.154 357.983c.02.098.045.196.063.294l0 0C793.2 358.179 793.175 358.082 793.154 357.983zM792.574 355.876c.091.249.163.501.24.753C792.736 356.378 792.664 356.125 792.574 355.876L792.574 355.876zM793.43 360.202L793.43 360.202c.007.152.006.303.008.455v0C793.436 360.506 793.436 360.354 793.43 360.202zM792.057 354.651c.058.124.107.25.162.375C792.165 354.901 792.116 354.775 792.057 354.651 792.057 354.651 792.057 354.651 792.057 354.651zM791.13 368.733c0-.001.001-.001.001-.002-.872 1.358-1.972 2.6-3.321 3.645l-8.499 6.585c-12.769 9.893-31.14 7.562-41.033-5.207l-8.024-10.356c-9.893-12.769-7.562-31.14 5.207-41.033l8.499-6.585c1.348-1.045 2.825-1.799 4.357-2.305 0 0 0 0 0 0l-.001 0-20.384-26.31-53.277 41.278 79.165 102.177 62.331-35.959-3.409 1.967L791.13 368.733zM791.397 353.418c.083.14.158.283.236.424C791.555 353.701 791.481 353.558 791.397 353.418L791.397 353.418zM790.403 351.94c.281.362.536.736.777 1.114l0 0C790.939 352.676 790.684 352.302 790.403 351.94z"/><polygon fill="#323b40" points="793.198 363.496 793.196 363.507 793.198 363.496"/><path fill="#323b40" d="M793.387,362.083L793.387,362.083L793.387,362.083z"/><path fill="#fdc457" d="M725.161,284.143"/><polygon fill="#2d363a" points="812.738 396.633 753.822 430.623 748.44 423.678 807.114 389.37"/><path fill="#7d4025" d="M738.252,648.858H388.132v-176h364.119v162
	C752.252,642.59,745.984,648.858,738.252,648.858z"/><circle cx="389.466" cy="513.325" r="9" fill="#783f21"/><path fill="#72361f" d="M361.252,412.858v-51.841c0-19.882-16.118-36-36-36h0c-19.882,0-36,16.118-36,36
	v51.841c0,33.137-26.863,60-60,60h0v152c0,13.255,10.745,24,24,24h144c13.255,0,24-10.745,24-24v-152h0
	C388.115,472.858,361.252,445.995,361.252,412.858z"/><polygon fill="#72361f" points="742.382 648.858 398.918 648.858 413.882 634.858 755.382 634.858"/><path fill="#72361f" d="M752.252,472.858v135.449c0,0.006,0,0.013,0,0.019v16.532c0,5.514-4.486,10-10,10
	h-16.539c-0.004,0-0.008,0-0.012,0h-27.901v14h44.453c13.255,0,24-10.745,24-24v-152H752.252z"/><defs><filter id="c" width="443.525" height="374.852" x="373.132" y="396.149" filterUnits="userSpaceOnUse"><feColorMatrix values="1 0 0 0 0  0 1 0 0 0  0 0 1 0 0  0 0 0 1 0"/></filter></defs><mask id="d" width="443.525" height="374.852" x="373.132" y="396.149" maskUnits="userSpaceOnUse"><g filter="url(#c)"><path fill="#fff" d="M766.341,624.86c0,13.255-10.745,24-24,24H380.549h2.435
			c13.233,0,23.969-10.711,24-23.945l0.351-152.124h359.006V624.86z"/></g></mask><g mask="url(#d)" opacity=".08"><path fill="none" stroke="#300f0f" stroke-linecap="round" stroke-linejoin="round" stroke-miterlimit="10" stroke-width="6" d="
		M414.122,598.079c8.968-15.188,40.779,1.635,26.336,18.298C429.097,629.486,405.474,612.726,414.122,598.079
		C418.704,590.32,410.63,603.995,414.122,598.079z"/><path fill="none" stroke="#300f0f" stroke-linecap="round" stroke-linejoin="round" stroke-miterlimit="10" stroke-width="5.843" d="
		M451,460.333c0.112,24.314,8.162,60.941,23.333,73.333c30.049,24.546,124.715-16.022,126-55.333
		C601.905,430.241,463.807,381.956,445,405c-5.821,7.133-5.338,27.626-1.701,28.709c1.177,0.351,2.254-2.168,3.693-1.95
		C451.22,432.399,450.976,455.217,451,460.333z"/><path fill="none" stroke="#300f0f" stroke-linecap="round" stroke-linejoin="round" stroke-miterlimit="10" stroke-width="6" d="
		M388.418,481.209c-23.928,66.48,71.266,53.487,89.105,97.39c18.832,46.345-42.428,82.458-78.272,93.11"/><path fill="none" stroke="#300f0f" stroke-linecap="round" stroke-linejoin="round" stroke-miterlimit="10" stroke-width="6" d="M391.799 578.709c40.355-27.602 81.919-3.44 57.261 42.1-14.423 26.637-43.471 40.206-72.928 41.9M728.292 533.587c3.931 2.382 10.618 5.562 19.049 5.556 3.814-.003 8.606-.075 12.699-3.439 1.133-.931 4.383-3.603 4.498-7.143.203-6.27-9.519-12.428-18.255-12.964-7.091-.435-17.111 2.614-19.049 9.789C726.351 528.655 727.426 531.747 728.292 533.587z"/><path fill="none" stroke="#300f0f" stroke-linecap="round" stroke-linejoin="round" stroke-miterlimit="10" stroke-width="6" d="
		M715.241,556.868c9.149,4.977,18.093,3.553,35.981,0.706c12.087-1.924,18.685-3.063,25.398-8.466
		c1.881-1.514,11.867-9.551,12.699-21.871c1.077-15.944-13.865-28.891-26.104-33.864c-21.237-8.629-40.925,4.077-44.447,6.349
		c-6.135,3.96-21.091,13.611-21.165,29.631C697.545,541.862,706.588,552.161,715.241,556.868z"/><path fill="none" stroke="#300f0f" stroke-linecap="round" stroke-linejoin="round" stroke-miterlimit="10" stroke-width="6" d="
		M786.132,576.709c-5.319,4.055-22.732,16.9-46.667,14c-19.154-2.321-31.284-13.368-34.667-16.667
		c-15.046-14.673-17.357-32.408-18-38c-0.643-5.599-2.009-19.044,5.16-33.497c6.051-12.2,15.02-18.683,20.459-22.576
		c22.579-16.16,47.022-13.896,51.502-13.404c8.401,0.922,21.069,2.313,32.453,11.993c20.031,17.034,17.361,45.353,16.932,50.091
		C810.708,557.292,790.086,573.694,786.132,576.709z"/><path fill="none" stroke="#300f0f" stroke-linecap="round" stroke-linejoin="round" stroke-miterlimit="10" stroke-width="6" d="
		M795.668,590.027c-3.303,3.201-8.486,7.542-15.668,10.973c-27.609,13.191-58.548,0.407-75.667-6.667
		c-17.727-7.325-29.943-15.771-46.667-27.333c-29.144-20.15-32.599-28.492-51.333-33.333c-6.033-1.559-25.225-6.238-44.534,2.542
		c-5.778,2.627-10.211,6.042-14.799,9.791c-22.299,18.222-28.463,38.799-48,82c-4.502,9.955-11.237,24.478-20,42"/><path fill="none" stroke="#300f0f" stroke-linecap="round" stroke-linejoin="round" stroke-miterlimit="10" stroke-width="6" d="
		M523,724c15.788,5.149,47.904-66.893,69.483-59.19c12.14,4.333,10.933,30.333,20.517,31.19c10.594,0.948,21.019-30.023,22-33
		c2.548-7.734,19.415-58.935-9-92c-3.854-4.484-12.712-14.514-27.167-17.659c0,0-15.462-3.365-33.833,5.659
		C516.712,582.721,502.492,717.312,523,724z"/><path fill="none" stroke="#300f0f" stroke-linecap="round" stroke-linejoin="round" stroke-miterlimit="10" stroke-width="6" d="M565 637c5.748 4.154 20.161-5.729 28-15 3.919-4.635 12.097-14.307 8.386-21.758-2.876-5.774-11.761-7.948-18.386-6.242-7.479 1.926-11.047 8.532-14 14C564.169 616.944 559.373 632.933 565 637zM603.968 438.253c9.807 10.069 20.698 24.526 17.638 38.803-2.278 10.624-10.977 15.066-9.272 17.944 3.255 5.496 39.916-2.364 64-28 12.824-13.65 18.653-28.689 21.466-38.624M507 497c7.578 8.249 22.608 15.42 34 10 10.959-5.214 13.376-19.617 14-23.333 5.009-29.85-21.436-65.791-37.029-62.881C501.046 423.944 486.603 474.797 507 497z"/><path fill="none" stroke="#300f0f" stroke-linecap="round" stroke-linejoin="round" stroke-miterlimit="10" stroke-width="6" d="M522.217 435.657C527.805 435.77 532.665 452.973 533 467c.167 6.978-.532 23.846-5.333 24.667-6 1.025-19.721-22.784-14.018-43.054C513.796 448.091 517.42 435.56 522.217 435.657zM798.16 632.941c-38.974 24.07-57.435 23.215-67.023 16.932-6.903-4.524-9.903-12.319-28.22-26.809-7.722-6.109-13.813-9.963-21.165-9.171-7.2.775-12.071 5.624-13.404 7.055-4.677 5.022-5.653 10.769-7.055 19.754-1.623 10.401-.076 13.319-2.117 23.282-1.055 5.152-2.473 9.273-3.527 11.993"/><path fill="none" stroke="#300f0f" stroke-linecap="round" stroke-linejoin="round" stroke-miterlimit="10" stroke-width="5.843" d="
		M474.299,420.209"/><path fill="none" stroke="#300f0f" stroke-linecap="round" stroke-linejoin="round" stroke-miterlimit="10" stroke-width="6" d="M680.799 657.375c-7.279-10.599-8.184-20.945-4-24.667 4.964-4.415 16.116 1.355 17.333 2 12.419 6.585 15.884 20.429 16.667 24M501.466 554.154c-7.169 1.187-14.761 8.237-13.333 16 .964 5.239 5.901 10.07 10.667 10 9.109-.134 16.724-18.162 12-24C508.269 553.027 502.655 553.957 501.466 554.154zM548 613c3.88-12.657 9.652-31.481 27-39 2.417-1.047 14.74-6.388 27.799-.625 13.603 6.004 17.795 19.559 18.667 22.667 5.698 20.318-9.775 36.435-10.667 37.333-3.139 3.162-5.79 4.649-19.333 10.667C565.19 655.716 551.97 661.503 548 659 536.181 651.55 546.665 617.356 548 613zM740.799 706.209"/><path fill="none" stroke="#300f0f" stroke-linecap="round" stroke-linejoin="round" stroke-miterlimit="10" stroke-width="7.805" d="
		M403.003,487.655c0.549,4.297,2.926,22.883,17.364,30.721c4.317,2.343,13.462,5.761,17.364,2.004
		c5.053-4.866-3.788-16.85-9.35-40.071c-6.569-27.426-1.661-41.707-6.011-42.742C416.356,436.135,399.685,461.706,403.003,487.655z"/><path fill="none" stroke="#300f0f" stroke-linecap="round" stroke-linejoin="round" stroke-miterlimit="10" stroke-width="6" d="M761 662c-20.635-11.105-30.338-27.14-27-34 3.322-6.828 21.749-9.061 43 0M673 599c-.129-4.02-8.961-9.544-14-6-4.07 2.863-4.096 10.537-1 13C662.25 609.38 673.146 603.55 673 599z"/><path fill="none" stroke="#300f0f" stroke-linecap="round" stroke-linejoin="round" stroke-miterlimit="10" stroke-width="5.352" d="
		M628,508c-4.969,2.587-7.421,3.943-8,6c-2.063,7.326,12.843,18.476,26,23.5c7.993,3.052,17.404,6.531,24.258,1.642
		c8.479-6.048,8.243-21.532,2.742-30.142c-0.882-1.381-3.189-4.893-7.567-6.918c-2.108-0.975-4.791-2.237-11.433-1.082
		C641.286,503.212,635.441,504.126,628,508z"/><path fill="none" stroke="#300f0f" stroke-linecap="round" stroke-linejoin="round" stroke-miterlimit="10" stroke-width="6" d="M650.444 514.77c-6.038.553-11.15 5.357-9.047 9.037 1.683 2.946 7.594 4.48 12.337 3.389 5.336-1.227 8.812-5.688 6.58-9.037C658.616 515.612 654.101 514.435 650.444 514.77zM489.667 443.667c-1.998 3.549-17.324 31.818-4 59.333 2.176 4.493 9.044 18.676 24 24 22.034 7.843 46.299-8.997 58-24.667 12.919-17.299 13.036-36.534 12.667-44"/></g><path fill="#d98c40" d="M347.252,412.858v-51.841c0-19.882-16.118-36-36-36h0c-19.882,0-36,16.118-36,36
	v51.841c0,33.137-26.863,60-60,60h0v152c0,13.255,10.745,24,24,24h144c13.255,0,24-10.745,24-24v-152h0
	C374.115,472.858,347.252,445.995,347.252,412.858z"/><path fill="#c87634" d="M217.435,634.858c3.793,8.26,12.132,14,21.816,14h144c9.685,0,18.024-5.74,21.816-14
	H217.435z"/><defs><filter id="e" width="305.376" height="372.683" x="195.018" y="329.655" filterUnits="userSpaceOnUse"><feColorMatrix values="1 0 0 0 0  0 1 0 0 0  0 0 1 0 0  0 0 0 1 0"/></filter></defs><mask id="f" width="305.376" height="372.683" x="195.018" y="329.655" maskUnits="userSpaceOnUse"><g filter="url(#e)"><path fill="#d98c40" d="M347.252,412.858v-51.841c0-19.882-16.118-36-36-36h0c-19.882,0-36,16.118-36,36
			v51.841c0,33.137-26.863,60-60,60h0v152c0,13.255,10.745,24,24,24h144c13.255,0,24-10.745,24-24v-152h0
			C374.115,472.858,347.252,445.995,347.252,412.858z"/></g></mask><g mask="url(#f)"><path fill="none" stroke="#cf8139" stroke-linecap="round" stroke-linejoin="round" stroke-miterlimit="10" stroke-width="6" d="
		M252.132,678.709c-18.342-25.564-6.256-74.033,23.333-89.333c13.773-7.122,27.239-4.937,31.119-4.252
		c37.205,6.573,69.172,55.068,56.667,84C349.021,702.048,276.119,712.139,252.132,678.709z"/><path fill="none" stroke="#cf8139" stroke-linecap="round" stroke-linejoin="round" stroke-miterlimit="10" stroke-width="6" d="
		M216.132,650.709c-7.98-22.441,10.715-56.083,35.667-72c46.651-29.761,98.228,13.248,134-16c29.922-24.465,18.608-74.812,25-75
		c9.705-0.285,58.115,115.126,0,176C354.127,723.072,231.403,693.649,216.132,650.709z"/><path fill="none" stroke="#cf8139" stroke-linecap="round" stroke-linejoin="round" stroke-miterlimit="10" stroke-width="6" d="
		M277.799,656.709c-9.164-9.988-13.967-27.376-5.667-40c6.171-9.386,17.181-11.354,20.667-12c15.94-2.952,41.418,3.064,46,22.667
		c3.863,16.526-9.008,34.652-26,39.333C300.364,670.134,286.503,666.195,277.799,656.709z"/><path fill="none" stroke="#cf8139" stroke-linecap="round" stroke-linejoin="round" stroke-miterlimit="10" stroke-width="4.913" d="
		M379.465,625.707c5.26-2.421,5.881-19.525-2.456-25.791c-2.944-2.213-8.318-4.061-11.872-1.638
		c-3.861,2.633-3.359,8.798-3.275,9.825C362.703,618.43,374.499,627.994,379.465,625.707z"/><path fill="none" stroke="#cf8139" stroke-linecap="round" stroke-linejoin="round" stroke-miterlimit="10" stroke-width="6" d="M212.132 527.375c7.328-2.62 17.648 2.249 21.333 9.333 8.913 17.133-20.148 48.81-29.333 45.333C194.664 578.458 195.359 533.372 212.132 527.375zM207.799 499.709c7.02 6.118 17.97 14.215 33 20.333 19.203 7.818 36.331 8.85 46.667 8.667 15.579-3.888 24.221-10.748 29.333-17 26.121-31.942 5.642-103.699-54-177"/><path fill="none" stroke="#cf8139" stroke-linecap="round" stroke-linejoin="round" stroke-miterlimit="10" stroke-width="6" d="M219.409 470.013c8.019 19.732 33.766 35.855 52.39 28.696 12.991-4.994 18.019-19.587 19.607-24.196 11.008-31.952-8.058-76.933-29.607-78.804C239.362 393.761 206.347 437.869 219.409 470.013zM403.799 377.709c-5.948-20.01-23.105-47.312-38.906-44.905-18.244 2.779-23.501 43.768-25.094 48.905-11.578 37.32 7.278 84.664 26 87 13.869 1.73 26.99-22.592 31-30C400.001 432.794 412.684 407.598 403.799 377.709zM352.894 490.296c-2.994 1.608-7.114 4.47-25.095 40.413-8.655 17.3-9.556 20.347-8 23 4.827 8.229 29.629 6.411 46.594-4.916 20.329-13.572 33.756-43.055 23.999-55.497C383.252 484.191 364.759 483.922 352.894 490.296z"/><path fill="none" stroke="#cf8139" stroke-linecap="round" stroke-linejoin="round" stroke-miterlimit="10" stroke-width="6" d="M363.394 505.295c-11.139 7.758-21.313 22.835-17.595 27.414 4.205 5.177 27.749-1.132 32.5-15.167 1.932-5.707 1.224-14.074-3-16.167C371.705 499.594 366.761 502.95 363.394 505.295zM296.799 628.709c-10.892 5.823-7.489 36.636 1.333 39.333 7.749 2.369 26.851-14.761 21.333-28.667C315.971 630.567 303.434 625.161 296.799 628.709zM244.799 548.709c-.523 3.323 8.884 7.891 16.667 8.667 2.74.273 7.39.737 9.333-2 1.563-2.2.928-5.838-.667-8C264.873 540.241 245.511 544.188 244.799 548.709zM232.132 454.709c1.001 16.044 18.557 31.514 27.667 28 8.218-3.17 12.341-22.86 3.667-34.667-6-8.167-18.862-13.568-26-8.667C231.434 443.517 232.042 453.262 232.132 454.709zM305.799 349.709c-3.671 2.503-3.297 13.91 4 20 8.162 6.812 20.614 3.322 22-1C333.954 361.99 311.831 345.596 305.799 349.709z"/><path fill="none" stroke="#cf8139" stroke-linecap="round" stroke-linejoin="round" stroke-miterlimit="10" stroke-width="4.913" d="
		M452.799,570.709c-14.186-5.119-40.293-8.061-53,8c-14.303,18.078-0.224,45.814,2,50c1.584,2.981,14.83,26.916,43,31
		c16.735,2.426,41.43-1.763,50-18C506.766,619.036,482.734,581.511,452.799,570.709z"/></g><circle cx="389.466" cy="560.858" r="9" fill="#72361f"/><circle cx="389.466" cy="513.325" r="9" fill="#72361f"/><circle cx="389.466" cy="608.392" r="9" fill="#72361f"/><circle cx="232.132" cy="513.325" r="9" fill="#72361f"/><circle cx="232.132" cy="560.858" r="9" fill="#72361f"/><circle cx="232.132" cy="608.392" r="9" fill="#72361f"/><circle cx="311.252" cy="361.709" r="12" fill="#72361f"/></svg>